<?xml version="1.0" encoding="UTF-8" standalone="no"?>
<!DOCTYPE svg PUBLIC "-//W3C//DTD SVG 1.1//EN" "http://www.w3.org/Graphics/SVG/1.1/DTD/svg11.dtd">
<svg width="100%" height="100%" viewBox="0 0 1182 1182" version="1.1" xmlns="http://www.w3.org/2000/svg" xmlns:xlink="http://www.w3.org/1999/xlink" xml:space="preserve" xmlns:serif="http://www.serif.com/" style="fill-rule:evenodd;clip-rule:evenodd;stroke-linejoin:round;stroke-miterlimit:2;">
    <g id="Inner-Background" serif:id="Inner Background" transform="matrix(2.13427,0,0,2.13427,-815.678,-558.109)">
        <circle cx="658.882" cy="538.199" r="235.195" style="fill:white;"/>
    </g>
    <g id="ICE-Back" serif:id="ICE Back" transform="matrix(1,0,0,1,-96,-90)">
        <path d="M1171.97,553.162C1171.68,550.634 1169.88,548.537 1167.43,547.86C1167.43,547.86 1069.93,520.922 946.497,483.281C882.877,463.88 791.328,434.961 704.388,425.598C645.513,419.258 588.733,421.944 543.798,442.066C457.591,480.671 367.592,595.632 328.925,684.903C311.82,724.391 304.979,759.081 311.713,780.448C317.43,798.59 325.745,811.685 337.478,820.879C349.112,829.995 364.209,835.314 383.949,837.501C421.028,841.609 475.354,834.631 554.955,823.658C742.368,797.822 1182.36,689.873 1182.36,689.873C1185.42,689.122 1187.45,686.211 1187.08,683.081L1171.97,553.162ZM1160.04,558.781L1174.03,679.042C1123.47,691.371 728.148,787.164 553.248,811.275C475.075,822.051 421.74,829.111 385.325,825.077C368.318,823.192 355.211,818.894 345.188,811.04C335.264,803.264 328.471,792.035 323.635,776.691C317.502,757.23 324.816,725.837 340.395,689.871C377.985,603.089 465.102,491.003 548.907,453.475C592.028,434.165 646.551,431.942 703.049,438.027C789.167,447.301 879.833,476.02 942.851,495.237C1051.69,528.43 1140.4,553.31 1160.04,558.781Z"/>
        <path d="M328.119,712.514C328.119,712.514 390.793,713.697 435.892,723.018C447.098,725.334 457.191,728.136 464.834,731.603C469.199,733.584 472.706,735.698 474.877,738.19C482.759,747.233 484.073,762.358 483.397,777.12C482.301,801.051 475.18,824.368 475.18,824.368L487.136,828.018C487.136,828.018 494.717,803.182 495.884,777.691C496.716,759.503 494.011,741.119 484.301,729.977C477.102,721.717 459.643,715.163 438.422,710.777C392.363,701.257 328.358,700.017 328.358,700.017L328.119,712.514Z"/>
        <path d="M544.232,450.82C544.232,450.82 604.776,447.551 634.412,453.662C651.225,457.128 657.604,469.562 650.963,476.589C635.114,493.358 626.093,500.639 591.738,533.258C562.085,561.413 540.545,589.142 490.711,603.586C434.077,620.001 379.851,610.244 379.851,610.244C379.851,610.244 398.322,566.451 448.191,517.666C498.06,468.882 544.232,450.82 544.232,450.82Z"/>
    </g>
    <g id="ICE-Front" serif:id="ICE Front">
        <path d="M1052.77,504.767L1056.11,645.025C1056.11,645.025 741.326,791.657 554.102,817.466C396.327,839.216 338.78,845.542 317.674,778.569C296.229,710.525 424.915,502.152 546.353,447.77C656.422,398.48 796.073,442.809 903.639,467.351C1025.54,495.165 1052.77,504.767 1052.77,504.767Z" style="fill:white;"/>
        <path d="M679.717,790.176L717.214,737.811L893.826,685.999L894.754,715.846L679.717,790.176Z" style="fill:rgb(255,0,0);"/>
        <path d="M544.232,450.82C544.232,450.82 604.776,447.551 634.412,453.662C651.225,457.128 657.604,469.562 650.963,476.589C635.114,493.358 626.093,500.639 591.738,533.258C562.085,561.413 540.545,589.142 490.711,603.586C434.077,620.001 379.851,610.244 379.851,610.244C379.851,610.244 398.322,566.451 448.191,517.666C498.06,468.882 544.232,450.82 544.232,450.82Z" style="fill:rgb(255,0,0);"/>
        <path d="M516.948,703.035L541.192,677.391C541.192,677.391 609.236,669.44 756.633,646.775C899.544,624.799 1011.62,604.953 1011.62,604.953L1011.96,614.868C1011.96,614.868 936.404,633.12 758.27,664.309C588.099,694.104 516.948,703.035 516.948,703.035Z" style="fill:rgb(255,0,0);"/>
        <g transform="matrix(1,0,0,1,11,-2)">
            <path d="M1012.93,604.394L1013.13,614.277L1040,608.548L1039.53,599.007L1012.93,604.394Z" style="fill:rgb(255,0,0);"/>
        </g>
        <path d="M576.504,641.264C576.504,641.264 645.709,566.613 724.273,535.324C748.281,525.763 801.956,530.548 829.925,532.71C872.137,535.972 906.352,538.079 906.352,538.079L907.708,600.551L576.504,641.264Z" style="fill:rgb(255,0,0);"/>
        <g transform="matrix(0.883271,-0.0179953,0.0178867,0.877939,96.916,83.4512)">
            <ellipse cx="925.623" cy="571.922" rx="9.571" ry="41.522" style="fill:rgb(255,0,0);"/>
        </g>
        <path d="M940.253,540.227L942.257,594.751L1054.72,583.872L1054.28,550.131L940.253,540.227Z" style="fill:rgb(255,0,0);"/>
        <path d="M328.119,712.514C328.119,712.514 390.793,713.697 435.892,723.018C447.098,725.334 457.191,728.136 464.834,731.603C469.199,733.584 472.706,735.698 474.877,738.19C482.759,747.233 484.073,762.358 483.397,777.12C482.301,801.051 475.18,824.368 475.18,824.368L487.136,828.018C487.136,828.018 494.717,803.182 495.884,777.691C496.716,759.503 494.011,741.119 484.301,729.977C477.102,721.717 459.643,715.163 438.422,710.777C392.363,701.257 328.358,700.017 328.358,700.017L328.119,712.514Z"/>
        <path d="M1055.79,622.213C1055.79,622.213 907.441,676.043 797.941,706.713C552.004,775.599 489.554,774.915 489.554,774.915L489.386,787.414C489.386,787.414 552.607,788.411 801.312,718.75C911.19,687.973 1060.05,633.963 1060.05,633.963L1055.79,622.213Z"/>
        <path d="M1059.02,504.618C1058.95,502.023 1057.29,499.737 1054.85,498.873C1054.85,498.873 1027.5,489.201 905.029,461.258C851.068,448.946 789.055,431.69 726.732,423.675C663.45,415.536 599.865,416.959 543.798,442.066C457.591,480.671 367.592,595.632 328.925,684.903C311.82,724.391 304.979,759.081 311.713,780.448C317.43,798.59 325.745,811.685 337.478,820.879C349.112,829.995 364.209,835.314 383.949,837.501C421.028,841.609 475.354,834.631 554.955,823.658C742.835,797.758 1058.75,650.691 1058.75,650.691C1061,649.642 1062.42,647.359 1062.36,644.876L1059.02,504.618ZM1046.62,509.365L1049.77,641.072C1014.01,657.503 727.927,787.195 553.248,811.275C475.075,822.051 421.74,829.111 385.325,825.077C368.318,823.192 355.211,818.894 345.188,811.04C335.264,803.264 328.471,792.035 323.635,776.691C317.502,757.23 324.816,725.837 340.395,689.871C377.985,603.089 465.102,491.003 548.907,453.475C602.91,429.292 664.185,428.234 725.137,436.072C787.048,444.035 848.644,461.214 902.248,473.445C998.513,495.409 1035.46,505.947 1046.62,509.365L1046.62,509.365Z"/>
    </g>
    <path id="Outer-Ring" serif:id="Outer Ring" d="M590.551,0C916.485,0 1181.1,264.617 1181.1,590.551C1181.1,916.485 916.485,1181.1 590.551,1181.1C264.617,1181.1 -0,916.485 -0,590.551C-0,264.617 264.617,0 590.551,0ZM590.551,132.874C843.15,132.874 1048.23,337.952 1048.23,590.551C1048.23,843.15 843.15,1048.23 590.551,1048.23C337.952,1048.23 132.874,843.15 132.874,590.551C132.874,337.952 337.952,132.874 590.551,132.874Z"/>
    <g id="Text" transform="matrix(3.08073,0,0,3.08073,-1094.21,-1122.98)">
        <path d="M368.837,549.096C367.314,550.459 366.322,553.222 366.314,555.216C366.299,558.994 369.293,561.773 373.012,561.788C376.494,561.802 377.96,559.695 379.162,556.814C379.853,555.061 380.516,552.921 382.837,552.93C384.563,552.937 386.076,554.044 386.069,555.829C386.061,557.704 384.508,559.275 382.78,559.863L385.536,562.701C388.13,561.164 389.925,558.909 389.937,555.815C389.955,551.233 386.782,548.423 382.289,548.405C374.761,548.376 376.303,557.278 372.524,557.263C371.066,557.258 370.001,555.915 370.006,554.516C370.012,553.058 370.73,551.99 371.864,551.161L368.837,549.096Z" style="fill:white;fill-rule:nonzero;"/>
        <path d="M371.934,535.298L372.411,530.801L368.624,530.399L367.208,543.744L370.996,544.145L371.473,539.648L389.995,541.613L390.457,537.263L371.934,535.298Z" style="fill:white;fill-rule:nonzero;"/>
        <path d="M375.639,514.328L371.911,513.547L369.533,524.906L391.492,529.503L393.87,518.144L390.142,517.364L388.661,524.441L382.719,523.197L384.146,516.382L380.418,515.602L378.992,522.417L374.157,521.405L375.639,514.328Z" style="fill:white;fill-rule:nonzero;"/>
        <path d="M379.485,501.183L380.844,496.869L377.212,495.725L373.178,508.524L376.811,509.668L378.17,505.355L395.935,510.953L397.25,506.782L379.485,501.183Z" style="fill:white;fill-rule:nonzero;"/>
        <path d="M385.955,479.669C384.019,480.322 382.018,482.47 381.225,484.3C379.723,487.767 381.381,491.501 384.793,492.98C387.988,494.363 390.165,493.005 392.405,490.829C393.731,489.49 395.183,487.785 397.313,488.708C398.896,489.394 399.851,491.007 399.141,492.645C398.396,494.365 396.35,495.197 394.529,495.057L395.945,498.751C398.935,498.36 401.472,496.995 402.703,494.156C404.524,489.951 402.715,486.119 398.592,484.333C391.684,481.34 389.595,490.131 386.127,488.628C384.789,488.049 384.339,486.394 384.895,485.111C385.474,483.773 386.555,483.074 387.924,482.759L385.955,479.669Z" style="fill:white;fill-rule:nonzero;"/>
        <path d="M411.7,468.129L401.657,449.607L393.179,462.336L396.349,464.447L400.983,457.488L411.01,476.035L420.032,462.489L416.863,460.378L411.7,468.129Z" style="fill:white;fill-rule:nonzero;"/>
        <path d="M415.662,453.336C419.794,456.927 424.438,457.888 428.381,453.351C432.323,448.814 430.724,444.349 426.591,440.758L416.461,431.956L413.593,435.258L423.071,443.494C425.159,445.309 427.945,448.045 425.506,450.853C423.066,453.66 419.968,451.283 417.879,449.468L408.401,441.232L405.532,444.534L415.662,453.336Z" style="fill:white;fill-rule:nonzero;"/>
        <path d="M441.438,412.6C439.423,412.26 436.644,413.208 435.081,414.446C432.119,416.793 431.816,420.867 434.125,423.782C436.287,426.511 438.848,426.342 441.849,425.483C443.65,424.93 445.736,424.112 447.177,425.932C448.249,427.285 448.328,429.158 446.929,430.266C445.459,431.43 443.262,431.196 441.724,430.213L441.227,434.137C444.047,435.206 446.928,435.201 449.354,433.28C452.946,430.435 453.161,426.202 450.371,422.68C445.697,416.779 439.702,423.54 437.356,420.577C436.451,419.435 436.835,417.763 437.932,416.895C439.075,415.99 440.358,415.885 441.713,416.254L441.438,412.6Z" style="fill:white;fill-rule:nonzero;"/>
        <path d="M457.405,416.462L459.25,415.317C463.143,412.9 464.118,409.562 461.607,405.518C458.923,401.195 455.331,401.219 451.337,403.699L446.281,406.838L458.115,425.898L461.831,423.591L457.405,416.462ZM451.912,407.615L452.569,407.207C454.642,405.92 456.277,405.395 457.8,407.847C459.338,410.324 458.448,411.542 456.248,412.907L455.49,413.378L451.912,407.615Z" style="fill:white;fill-rule:nonzero;"/>
        <path d="M482.275,407.286L485.831,410.851L490.069,408.885L472.657,391.576L469.58,393.003L471.337,417.576L475.521,415.635L475.203,410.567L482.275,407.286ZM479.665,404.561L474.834,406.802L473.643,398.367L473.697,398.342L479.665,404.561ZM465.471,387.824C464.284,388.375 463.763,389.798 464.314,390.985C464.865,392.173 466.287,392.694 467.475,392.143C468.662,391.592 469.183,390.169 468.632,388.982C468.081,387.794 466.659,387.273 465.471,387.824ZM471.166,385.182C469.979,385.733 469.458,387.155 470.009,388.343C470.56,389.531 471.982,390.052 473.17,389.5C474.358,388.949 474.878,387.527 474.327,386.339C473.776,385.152 472.354,384.631 471.166,385.182Z" style="fill:white;fill-rule:nonzero;"/>
        <path d="M494.204,388.065L498.503,386.659L497.319,383.04L484.565,387.211L485.749,390.831L490.047,389.425L495.838,407.129L499.995,405.769L494.204,388.065Z" style="fill:white;fill-rule:nonzero;"/>
        <path d="M516.003,392.314C516.741,397.739 519.599,401.524 525.554,400.714C531.51,399.903 533.252,395.492 532.513,390.067L530.704,376.771L526.37,377.36L528.063,389.802C528.436,392.544 528.726,396.439 525.041,396.94C521.355,397.442 520.594,393.611 520.22,390.87L518.527,378.428L514.193,379.018L516.003,392.314Z" style="fill:white;fill-rule:nonzero;"/>
        <path d="M538.762,398.591L543.136,398.635L543.286,383.401L543.346,383.402L555.003,399.199L558.157,399.23L558.383,376.35L554.01,376.306L553.86,391.391L553.801,391.391L542.144,375.594L538.99,375.562L538.762,398.591Z" style="fill:white;fill-rule:nonzero;"/>
        <path d="M563.325,399.298L569.467,400.274C575.785,401.279 580.959,397.161 581.95,390.931C582.954,384.613 579.426,379.141 573.02,378.122L566.849,377.141L563.325,399.298ZM570.57,381.589L571.275,381.701C576.183,382.482 578.254,385.372 577.488,390.191C576.791,394.57 574.267,397.181 568.948,396.335L568.243,396.223L570.57,381.589Z" style="fill:white;fill-rule:nonzero;"/>
        <path d="M606.568,390.432L610.841,391.913L612.088,388.314L599.408,383.921L598.161,387.52L602.435,389L596.337,406.6L600.47,408.032L606.568,390.432Z" style="fill:white;fill-rule:nonzero;"/>
        <path d="M619.929,406.024C622.858,406.865 625.513,404.969 626.746,402.392C628.813,398.07 626.896,394.976 622.897,393.063L617.555,390.508L607.873,410.746L611.819,412.634L615.723,404.474L615.776,404.5L616.785,415.009L621.563,417.295L619.929,406.024ZM619.96,395.616L620.497,395.873C622.591,396.875 623.943,398.115 622.749,400.612C621.568,403.081 619.729,402.993 617.555,401.953L617.045,401.709L619.96,395.616Z" style="fill:white;fill-rule:nonzero;"/>
        <path d="M648.349,420.915C651.996,415.336 651.11,408.642 645.506,404.98C639.902,401.317 633.416,403.191 629.769,408.77C626.155,414.299 626.852,421.011 632.58,424.755C638.308,428.499 644.735,426.444 648.349,420.915ZM644.661,418.291C642.773,421.18 639,423.797 634.941,421.144C630.881,418.49 631.764,413.984 633.653,411.095C635.639,408.057 639.684,406.328 643.145,408.591C646.607,410.854 646.647,415.252 644.661,418.291Z" style="fill:white;fill-rule:nonzero;"/>
        <path d="M662.803,423.596L666.243,426.531L668.716,423.634L658.508,414.923L656.035,417.82L659.476,420.756L647.384,434.925L650.712,437.764L662.803,423.596Z" style="fill:white;fill-rule:nonzero;"/>
        <path d="M663.106,444.35L683.407,438.708L672.898,427.596L670.131,430.213L675.876,436.288L655.555,441.908L666.738,453.734L669.505,451.117L663.106,444.35Z" style="fill:white;fill-rule:nonzero;"/>
        <path d="M669.404,456.878L673.058,461.91C676.817,467.086 683.388,467.831 688.492,464.124C693.669,460.365 695.041,454.001 691.23,448.752L687.558,443.696L669.404,456.878ZM687.046,449.473L687.466,450.051C690.386,454.071 689.808,457.58 685.859,460.447C682.271,463.052 678.64,463.115 675.476,458.757L675.056,458.179L687.046,449.473Z" style="fill:white;fill-rule:nonzero;"/>
        <path d="M703.36,475.09L706.68,473.224L700.992,463.109L681.436,474.105L687.124,484.22L690.444,482.353L686.9,476.051L692.191,473.075L695.604,479.144L698.923,477.278L695.511,471.209L699.816,468.788L703.36,475.09Z" style="fill:white;fill-rule:nonzero;"/>
        <path d="M696.295,505.637L697.912,509.733L718.1,498.152L716.943,495.218L701.243,495.72L712.967,485.144L711.831,482.265L689.021,487.204L690.638,491.3L704.323,488.043L704.345,488.098L692.917,497.886L693.474,499.298L708.571,498.81L708.593,498.865L696.295,505.637Z" style="fill:white;fill-rule:nonzero;"/>
        <path d="M701.206,523.374L702.164,529.519C703.148,535.84 708.657,539.499 714.89,538.528C721.211,537.543 725.335,532.504 724.336,526.095L723.374,519.921L701.206,523.374ZM720.284,524.829L720.394,525.534C721.159,530.444 719.045,533.303 714.223,534.054C709.843,534.737 706.582,533.137 705.753,527.816L705.643,527.11L720.284,524.829Z" style="fill:white;fill-rule:nonzero;"/>
        <path d="M709.181,556.543L704.488,558.372L704.59,563.042L727.43,554.032L727.356,550.641L704.14,542.397L704.241,547.008L709.011,548.749L709.181,556.543ZM712.724,555.246L712.608,549.921L720.813,552.212L720.814,552.272L712.724,555.246Z" style="fill:white;fill-rule:nonzero;"/>
        <path d="M418.546,656.142L421.63,653.908L414.822,644.51L396.654,657.672L403.461,667.069L406.546,664.835L402.304,658.979L407.22,655.418L411.304,661.057L414.389,658.823L410.304,653.184L414.304,650.286L418.546,656.142Z" style="fill:white;fill-rule:nonzero;"/>
        <path d="M427.376,660.711L424.54,657.381L407.458,671.925L410.294,675.256L427.376,660.711Z" style="fill:white;fill-rule:nonzero;"/>
        <path d="M438.123,674.603C438.223,672.562 436.953,669.914 435.54,668.509C432.861,665.843 428.78,666.022 426.157,668.659C423.701,671.127 424.171,673.651 425.378,676.53C426.14,678.253 427.197,680.228 425.56,681.874C424.343,683.097 422.492,683.397 421.226,682.138C419.897,680.816 419.871,678.606 420.666,676.963L416.71,676.931C415.982,679.858 416.326,682.718 418.519,684.901C421.768,688.133 425.996,687.848 429.165,684.663C434.474,679.326 427.055,674.169 429.72,671.49C430.748,670.457 432.453,670.642 433.444,671.628C434.478,672.656 434.734,673.918 434.527,675.307L438.123,674.603Z" style="fill:white;fill-rule:nonzero;"/>
        <path d="M449.808,686.723L452.191,683.752L443.138,676.492L429.103,693.995L438.156,701.255L440.539,698.284L434.898,693.76L438.695,689.025L444.127,693.38L446.509,690.409L441.078,686.053L444.167,682.2L449.808,686.723Z" style="fill:white;fill-rule:nonzero;"/>
        <path d="M444.345,705.904L448.078,708.183L456.016,695.18L456.067,695.211L457.979,714.75L460.671,716.394L472.593,696.864L468.86,694.585L461,707.461L460.949,707.43L459.037,687.891L456.345,686.247L444.345,705.904Z" style="fill:white;fill-rule:nonzero;"/>
        <path d="M476.347,712.508L477.002,712.792C479.022,713.668 481.159,714.724 479.998,717.399C478.838,720.075 476.864,719.543 474.707,718.607L473.861,718.24L476.347,712.508ZM468.451,719.721L474.757,722.456C478.497,724.078 482.117,723.507 483.869,719.467C484.852,717.202 484.825,714.271 482.585,712.781C484.223,712.518 485.476,711.051 486.115,709.577C487.891,705.482 486.195,702.962 482.373,701.305L477.377,699.138L468.451,719.721ZM479.993,704.1L480.512,704.325C482.204,705.059 483.169,706.126 482.257,708.228C481.334,710.357 480.13,710.516 478.164,709.663L477.673,709.45L479.993,704.1Z" style="fill:white;fill-rule:nonzero;"/>
        <path d="M501.317,726.765L501.652,731.79L506.137,733.095L504.401,708.604L501.144,707.656L486.31,727.325L490.738,728.614L493.831,724.587L501.317,726.765ZM501.143,722.996L496.029,721.508L500.678,714.369L500.736,714.386L501.143,722.996Z" style="fill:white;fill-rule:nonzero;"/>
        <path d="M518.871,721.519L520.129,712.771L515.799,712.149L512.607,734.356L516.937,734.978L518.363,725.053L526.374,726.204L524.948,736.13L529.277,736.752L532.469,714.545L528.14,713.923L526.882,722.67L518.871,721.519Z" style="fill:white;fill-rule:nonzero;"/>
        <path d="M537.829,737.436L542.203,737.42L542.149,722.186L542.208,722.185L554.077,737.824L557.231,737.813L557.149,714.931L552.775,714.947L552.829,730.033L552.77,730.033L540.901,714.394L537.747,714.405L537.829,737.436Z" style="fill:white;fill-rule:nonzero;"/>
        <path d="M574.32,716.568L573.816,712.793L562.314,714.33L565.286,736.568L576.789,735.03L576.284,731.255L569.117,732.213L568.313,726.196L575.214,725.274L574.709,721.499L567.808,722.421L567.154,717.526L574.32,716.568Z" style="fill:white;fill-rule:nonzero;"/>
        <path d="M590.329,722.385C593.118,721.157 593.945,718 593.243,715.232C592.066,710.588 588.613,709.437 584.315,710.526L578.576,711.98L584.086,733.728L588.326,732.654L586.105,723.885L586.162,723.871L593.662,731.302L598.797,730.001L590.329,722.385ZM583.693,714.367L584.27,714.221C586.519,713.651 588.353,713.739 589.032,716.421C589.705,719.075 588.236,720.184 585.9,720.776L585.352,720.915L583.693,714.367Z" style="fill:white;fill-rule:nonzero;"/>
        <path d="M624.752,714.62L628.313,718.181L632.548,716.21L615.116,698.921L612.041,700.352L613.826,724.923L618.007,722.977L617.684,717.909L624.752,714.62ZM622.139,711.898L617.311,714.145L616.11,705.711L616.164,705.686L622.139,711.898Z" style="fill:white;fill-rule:nonzero;"/>
        <path d="M638.439,712.864L642.09,710.454L633.697,697.74L633.747,697.707L652.244,704.287L654.876,702.549L642.271,683.453L638.62,685.862L646.931,698.452L646.881,698.485L628.384,691.906L625.752,693.643L638.439,712.864Z" style="fill:white;fill-rule:nonzero;"/>
        <path d="M654.254,678.245L657.688,675.301L655.209,672.41L645.021,681.144L647.5,684.035L650.933,681.092L663.056,695.233L666.377,692.386L654.254,678.245Z" style="fill:white;fill-rule:nonzero;"/>
        <path d="M660.531,667.029L657.435,670.118L673.281,686L676.377,682.911L660.531,667.029Z" style="fill:white;fill-rule:nonzero;"/>
        <path d="M674.028,657.612L671.134,655.136L663.898,663.59L680.942,678.179L683.786,674.856L676.281,668.432L680.402,663.617L677.509,661.141L673.388,665.956L669.635,662.744L674.028,657.612Z" style="fill:white;fill-rule:nonzero;"/>
        <path d="M694.495,652.949L699.37,654.212L702.021,650.365L678.228,644.306L676.303,647.099L690.304,667.369L692.921,663.572L690.072,659.368L694.495,652.949ZM690.863,651.928L687.841,656.313L682.528,649.654L682.562,649.605L690.863,651.928Z" style="fill:white;fill-rule:nonzero;"/>
    </g>
</svg>
